
<svg width="206px" height="36px" viewBox="0 0 206 36" version="1.1" xmlns="http://www.w3.org/2000/svg" xmlns:xlink="http://www.w3.org/1999/xlink">
    <!-- Generator: Sketch 49.2 (51160) - http://www.bohemiancoding.com/sketch -->
    <desc>Created with Sketch.</desc>
    <defs></defs>
    <g id="Page-1" stroke="none" stroke-width="1" fill="none" fill-rule="evenodd">
        <g id="Definitivo-" transform="translate(-72.000000, -6797.000000)" fill="#FFFFFF">
            <g id="Group-28" transform="translate(0.000000, 6665.000000)">
                <g id="Group-26" transform="translate(72.000000, 132.000000)">
                    <g id="Group-17">
                        <g id="Page-1">
                            <path d="M18.9997673,17.9657178 C19.0205176,19.471031 17.6502285,20.9175909 16.1281546,20.9966967 C14.5515152,21.0784905 13.021756,19.6288585 13.0002372,18.0317672 C12.9783341,16.4446602 14.4769677,14.9608514 16.0620611,15.0007883 C17.5860562,15.0391891 18.9786328,16.4450442 18.9997673,17.9657178" id="Fill-18"></path>
                            <path d="M16.0031615,7.58542537 C10.266147,7.58542537 5.61598064,12.2560691 5.61598064,18.0174451 C5.61598064,23.7792249 10.266147,28.4498686 16.0031615,28.4498686 C21.7401761,28.4498686 26.3903424,23.7792249 26.3903424,18.0174451 C26.3903424,12.2560691 21.7401761,7.58542537 16.0031615,7.58542537 M0.0281413289,17.8716641 C0.0281413289,15.3154498 -0.0534828619,12.7547934 0.0804129783,10.2054441 C0.117807312,9.49996125 0.621625594,8.53885697 1.20545971,8.18672128 C5.73419499,5.45403528 10.3172124,2.81019086 14.9364178,0.234189089 C15.4900952,-0.0743334615 16.5073819,-0.0795831907 17.0590489,0.227727884 C21.6786564,2.802922 26.2616738,5.44757408 30.790409,8.17945242 C31.3758515,8.53279959 31.9142495,9.49874977 31.9271164,10.1909064 C32.0216074,15.3691586 32.0280409,20.5510452 31.9238997,25.7288935 C31.9086203,26.4763742 31.342076,27.5186474 30.7148162,27.8990509 C26.2496111,30.6071035 21.7232883,33.216219 17.1563545,35.7486076 C16.5564368,36.0809558 15.4599385,36.0849941 14.8616291,35.7534535 C10.2942933,33.2222763 5.76756843,30.6131609 1.30155912,27.9063197 C0.672690974,27.5247048 0.128261642,26.4981808 0.084835964,25.739393 C-0.0635351022,23.1242202 0.0277392393,20.4953173 0.0281413289,17.8716641" id="Fill-19"></path>
                        </g>
                        <g id="Page-1" transform="translate(50.000000, 0.000000)">
                            <path d="M57.8822255,15.4806435 C57.8936963,13.0245155 55.9340446,11.0510192 53.4901377,11.0572467 C51.1116457,11.0631628 49.1693551,12.9746955 49.1247119,15.3523569 C49.0785186,17.8156466 51.0046879,19.8246397 53.4396041,19.8532862 C55.8894013,19.8819327 57.8707547,17.9321009 57.8822255,15.4806435 Z M43.0042491,0 L49.0878192,0 L49.0878192,5.33167848 C51.337652,5.27843331 53.4957181,4.9237769 55.5520969,5.23857728 C60.6017423,6.01172204 64.288529,10.8803855 63.9822268,15.9610955 C63.6576333,21.3425941 59.4896918,25.57107 54.1111127,25.974301 C49.125952,26.3482626 44.2449589,22.5965022 43.2984604,17.6197915 C43.1158572,16.6591989 43.0222304,15.6671573 43.01696,14.6891276 C42.988748,9.82451203 43.0042491,4.95989643 43.0042491,0 Z" id="Fill-1"></path>
                            <path d="M142.834399,0 L142.834399,5.34776598 C144.538376,5.23494128 146.111324,4.85740044 147.598228,5.08336238 C152.135322,5.77156183 155.491649,9.30069358 155.850921,14.0693344 C156.146491,17.984758 155.911303,21.9429986 155.911303,25.9856234 L150.168986,25.9856234 C150.168986,22.5680663 150.257748,19.1980142 150.120681,15.8379632 C150.072979,14.6628361 149.676874,13.3739467 149.066715,12.3838396 C148.270278,11.0918248 146.862776,10.8158575 145.432632,11.2305898 C143.960823,11.657511 142.867911,13.1242322 142.831682,14.8722338 C142.76647,17.9922588 142.803001,21.1144715 142.797264,24.2357467 C142.796359,24.7948696 142.796962,25.3543052 142.796962,26 L137,26 L137,0 L142.834399,0 Z" id="Fill-3"></path>
                            <path d="M104.424479,11.1192587 C101.992949,11.1433256 100.066969,13.1288437 100.108428,15.5691644 C100.14834,17.9264851 102.082983,19.8253008 104.455109,19.8354829 C106.894683,19.8459736 108.855006,17.8943959 108.848199,15.4620976 C108.841083,13.0310334 106.869313,11.0951918 104.424479,11.1192587 M114.929654,26 C112.655605,25.6871305 110.497271,26.3696427 107.991796,25.3285956 C101.68077,27.6519758 96.2075847,23.5340697 94.666801,19.0172087 C93.261532,14.8977599 94.0699794,11.1621471 97.1629944,8.10596103 C100.257866,5.04792364 104.044233,4.22039299 108.12236,5.74617191 C112.26484,7.29632627 114.598292,10.4777836 114.881698,14.8520946 C115.116218,18.4716926 114.929654,22.1184431 114.929654,26" id="Fill-6"></path>
                            <path d="M30.5389852,11.1180104 C28.0903261,11.100637 26.1184931,13.0548354 26.1184931,15.4998327 C26.1181829,17.8815412 28.0164909,19.8313963 30.3841796,19.8819654 C32.8393536,19.9340856 34.8474837,18.0127725 34.8819194,15.5777029 C34.9166654,13.1230881 32.9811295,11.1353838 30.5389852,11.1180104 M30.5411569,25.9998879 C24.8446816,26.0265685 20.0519114,21.2885912 20.0004129,15.5795643 C19.9486042,9.82617318 24.7789125,4.97619943 30.5365034,5.00008787 C36.2425958,5.02366607 40.9984485,9.79514924 40.9999996,15.4976611 C41.0015508,21.1998627 36.2472493,25.9735175 30.5411569,25.9998879" id="Fill-8"></path>
                            <path d="M133.981603,5.09793646 C133.981603,6.47973264 133.936808,7.77195932 133.996639,9.05952092 C134.040808,10.017417 133.651433,10.3330873 132.720755,10.3119389 C130.842795,10.2683982 128.96327,10.2998097 127.084684,10.3029198 C126.667429,10.3035418 126.192849,10.1922019 125.84639,10.3514366 C125.353641,10.5781594 124.955182,11.0070356 124.515999,11.3497633 C124.947664,11.7058643 125.332027,12.1698841 125.826029,12.3841667 C126.221669,12.5555306 126.750755,12.4379706 127.22001,12.4239754 C133.008322,12.2526115 134.628786,16.517737 133.764831,20.7809966 C133.03119,24.4004753 130.879446,25.9977981 127.125407,25.9993531 C124.259757,26.0005971 121.393481,25.9996641 118.397517,25.9996641 L118.397517,20.3682926 C119.330388,20.3682926 120.250729,20.3686036 121.170757,20.3682926 C122.736402,20.3682926 124.30236,20.388819 125.867065,20.3595845 C126.776755,20.3427902 127.974639,20.5374795 127.954904,19.1488412 C127.935796,17.824892 126.803382,17.8693657 125.855474,17.9275237 C122.53122,18.1318541 119.860101,17.170226 118.538168,13.8741927 C116.884186,9.7499525 119.174074,5.58745867 123.606309,5.16169253 C126.953117,4.83980213 130.355998,5.09793646 133.981603,5.09793646" id="Fill-10"></path>
                            <path d="M21,5.02061267 C17.6211755,13.8292079 14.3315888,22.4055889 11.0351136,31 L4.96819646,31 C5.60382,29.2918115 6.14488281,27.646728 6.83060476,26.0638169 C7.27115763,25.0472971 7.28618715,24.1787477 6.86911791,23.1264787 C4.69891752,17.6503277 2.61451065,12.1406037 0.507872607,6.63989459 C0.326578994,6.16614039 0.201646091,5.67093668 0,5.02309957 C1.8830739,5.02309957 3.64090177,4.97149642 5.39027554,5.06724202 C5.73470209,5.08620463 6.19278941,5.61622491 6.35091251,6.00853318 C7.51069064,8.88400981 8.60565396,11.7849772 9.72535337,14.6759969 C9.90633387,15.143223 10.1098587,15.6020558 10.4599213,16.441695 C10.9649758,15.1855003 11.34635,14.2662803 11.7048667,13.3383563 C12.6557971,10.8803677 13.5566291,8.40217319 14.5776973,5.97340574 C14.7555466,5.55156555 15.4077653,5.09584136 15.8692968,5.06382254 C17.4746377,4.95253382 19.0925031,5.02061267 21,5.02061267" id="Fill-12"></path>
                            <path d="M89.0975298,18.4191192 C90.7751454,19.5837502 92.386159,20.7020324 94,21.822181 C91.1709872,25.5104903 86.5280134,26.8972224 82.1790935,25.4162373 C77.8678729,23.9476948 74.9097403,19.7840767 75.0021034,15.3143697 C75.0957231,10.7908483 78.1264267,6.82786774 82.529068,5.47286434 C86.7953637,4.15985486 91.4172889,5.63990677 93.9817787,9.18388145 C92.3613403,10.3043411 90.7415302,11.4238675 89.1591052,12.5178866 C86.1469371,10.5992316 83.9415323,10.6679772 82.2312441,12.6671983 C80.7854788,14.3569086 80.8451692,16.8457475 82.3707312,18.474489 C84.1168337,20.3390184 86.4614114,20.3564381 89.0975298,18.4191192" id="Fill-14"></path>
                            <polygon id="Fill-16" points="66 26 72 26 72 5 66 5"></polygon>
                        </g>
                    </g>
                </g>
            </g>
        </g>
    </g>
</svg>