
<svg width="65px" height="64px" viewBox="0 0 65 64" version="1.1" xmlns="http://www.w3.org/2000/svg" xmlns:xlink="http://www.w3.org/1999/xlink">
    <!-- Generator: Sketch 49.2 (51160) - http://www.bohemiancoding.com/sketch -->
    <desc>Created with Sketch.</desc>
    <defs>
        <polygon id="path-1" points="0 0.111327731 64.8791322 0.111327731 64.8791322 63.4621849 0 63.4621849"></polygon>
    </defs>
    <g id="Page-1" stroke="none" stroke-width="1" fill="none" fill-rule="evenodd">
        <g id="Definitivo-" transform="translate(-1286.000000, -6931.000000)">
            <g id="Group-28" transform="translate(0.000000, 6665.000000)">
                <g id="Group-26" transform="translate(72.000000, 132.000000)">
                    <g id="Social" transform="translate(960.000000, 134.000000)">
                        <g id="Github" transform="translate(254.000000, 0.000000)">
                            <g id="Page-1">
                                <g>
                                    <g id="Group-3" transform="translate(0.000000, 0.426487)">
                                        <mask id="mask-2" fill="white">
                                            <use xlink:href="#path-1"></use>
                                        </mask>
                                        <g id="Clip-2"></g>
                                        <path d="M-0.000107438017,32.5886924 C-0.000107438017,46.9376 9.29489256,59.1115832 22.1842314,63.406037 C23.8054711,63.7066756 24.4006777,62.7014992 24.4006777,61.843684 C24.4006777,61.0697681 24.370595,58.5108437 24.3566281,55.7970286 C15.3318347,57.7616672 13.4274959,51.9650958 13.4274959,51.9650958 C11.9518347,48.211684 9.82563636,47.2129613 9.82563636,47.2129613 C6.8823719,45.1972303 10.0474959,45.238642 10.0474959,45.238642 C13.3050165,45.4677513 15.0202645,48.5860034 15.0202645,48.5860034 C17.9135702,53.5505748 22.6091488,52.1151462 24.4603058,51.2852975 C24.7514628,49.1867429 25.5921653,47.7534655 26.5198926,46.9424403 C19.314562,46.1217345 11.7401818,43.3363899 11.7401818,30.8918857 C11.7401818,27.3466084 13.0074132,24.4488605 15.0825785,22.1744403 C14.7457603,21.3564235 13.6353884,18.053163 15.3968347,13.5796168 C15.3968347,13.5796168 18.1214628,12.7072807 24.3200992,16.9092303 C26.9077438,16.1896336 29.6828678,15.8287597 32.4397273,15.8158521 C35.1965868,15.8287597 37.9738595,16.1896336 40.5663388,16.9092303 C46.7579917,12.7072807 49.4783223,13.5796168 49.4783223,13.5796168 C51.2440661,18.053163 50.1336942,21.3564235 49.796876,22.1744403 C51.876876,24.4488605 53.1349752,27.3466084 53.1349752,30.8918857 C53.1349752,43.3665076 45.5460909,46.1125916 38.3224959,46.9166252 C39.4860496,47.9244908 40.5228264,49.9009613 40.5228264,52.9310118 C40.5228264,57.276558 40.4857603,60.7739697 40.4857603,61.843684 C40.4857603,62.7084908 41.0691488,63.7206588 42.7134876,63.4022723 C55.595843,59.1029782 64.879562,46.9332975 64.879562,32.5886924 C64.879562,14.6509445 50.3555537,0.111112605 32.4397273,0.111112605 C14.5260496,0.111112605 -0.000107438017,14.6509445 -0.000107438017,32.5886924 Z" id="Fill-1" fill="#FFFFFF" mask="url(#mask-2)"></path>
                                    </g>
                                    <path d="M12.2866653,47.1678387 C12.215219,47.329721 11.9616653,47.3781244 11.7306736,47.2673345 C11.4948471,47.1608471 11.3632355,46.9408807 11.4395165,46.7789983 C11.5093512,46.6133513 11.762905,46.5670992 11.9981942,46.6778891 C12.2334835,46.7838387 12.367781,47.0059563 12.2866653,47.1678387" id="Fill-4" fill="#FFFFFF"></path>
                                    <path d="M13.6007934,48.635321 C13.4460826,48.7789176 13.1431074,48.7122286 12.938438,48.4852706 C12.7257107,48.2588504 12.6864959,47.9555227 12.8433554,47.8103126 C13.0029008,47.666716 13.2962066,47.7339429 13.5083967,47.960363 C13.721124,48.1894723 13.7624876,48.4895731 13.6007934,48.635321" id="Fill-6" fill="#FFFFFF"></path>
                                    <path d="M14.8797893,50.5055731 C14.6810289,50.6443294 14.3554917,50.514716 14.1545826,50.2253714 C13.9558223,49.9365647 13.9558223,49.5902118 14.1594174,49.4514555 C14.3603264,49.3126992 14.6810289,49.4380101 14.884624,49.7241277 C15.0828471,50.0177748 15.0828471,50.3641277 14.8797893,50.5055731" id="Fill-8" fill="#FFFFFF"></path>
                                    <path d="M16.6319421,52.3128471 C16.4541322,52.5091496 16.0754132,52.4564437 15.7982231,52.1886118 C15.5145868,51.9266958 15.4356198,51.5550655 15.6134298,51.358763 C15.7939256,51.1619227 16.1747934,51.2173176 16.4541322,51.4829983 C16.7356198,51.7443765 16.8215702,52.1186958 16.6319421,52.3128471" id="Fill-10" fill="#FFFFFF"></path>
                                    <path d="M19.0492975,53.3621782 C18.9708678,53.6165647 18.6061157,53.7316571 18.2386777,53.6235563 C17.8717769,53.5122286 17.6316529,53.2148168 17.7057851,52.9577412 C17.7820661,52.7012034 18.1484298,52.5812706 18.5185537,52.6969008 C18.8849174,52.8076908 19.1255785,53.1034891 19.0492975,53.3621782" id="Fill-12" fill="#FFFFFF"></path>
                                    <path d="M21.7043058,53.5565445 C21.713438,53.8243765 21.4018678,54.0464941 21.0161653,54.0513345 C20.628314,54.0604773 20.3140579,53.8432 20.3097603,53.5796706 C20.3097603,53.3091496 20.6148843,53.089721 21.0021983,53.0827294 C21.3879008,53.0752 21.7043058,53.2908639 21.7043058,53.5565445" id="Fill-14" fill="#FFFFFF"></path>
                                    <path d="M23.5697521,53.7365513 C23.1931818,53.8059294 22.8445455,53.6440471 22.7967355,53.385358 C22.75,53.1175261 23.0223554,52.8491563 23.3989256,52.7797782 C23.7824793,52.7130891 24.1257438,52.8701311 24.1746281,53.1358118 C24.2208264,53.3966521 23.9527686,53.6650218 23.5697521,53.7365513 Z" id="Fill-16" fill="#FFFFFF"></path>
                                </g>
                            </g>
                        </g>
                    </g>
                </g>
            </g>
        </g>
    </g>
</svg>