
<svg width="25px" height="38px" viewBox="0 0 25 38" version="1.1" xmlns="http://www.w3.org/2000/svg" xmlns:xlink="http://www.w3.org/1999/xlink">
    <!-- Generator: Sketch 49.2 (51160) - http://www.bohemiancoding.com/sketch -->
    <desc>Created with Sketch.</desc>
    <defs></defs>
    <g id="Page-1" stroke="none" stroke-width="1" fill="none" fill-rule="evenodd">
        <g id="Definitivo-" transform="translate(-76.000000, -6896.000000)" fill="#FFFFFF">
            <g id="Group-28" transform="translate(0.000000, 6665.000000)">
                <g id="Group-26" transform="translate(72.000000, 132.000000)">
                    <g id="Group-23" transform="translate(4.000000, 99.000000)">
                        <g id="Address">
                            <path d="M0,12.35 C0,19.19 12.5,38 12.5,38 C12.5,38 25,19.19 25,12.35 C25,5.53375 19.4090909,0 12.5,0 C5.59090909,0 0,5.53375 0,12.35 L0,12.35 Z M4.54545455,12.65875 C4.54545455,8.455 8.36363636,4.75 12.5,4.75 C16.6363636,4.75 20.4090909,8.5025 20.4090909,12.6825 C20.4090909,16.88625 16.6136364,21.3275 12.4545455,21.3275 C8.31818182,21.3275 4.54545455,16.8625 4.54545455,12.65875 L4.54545455,12.65875 Z" id="Shape"></path>
                        </g>
                    </g>
                </g>
            </g>
        </g>
    </g>
</svg>