
<svg width="126px" height="25px" viewBox="0 0 126 25" version="1.1" xmlns="http://www.w3.org/2000/svg" xmlns:xlink="http://www.w3.org/1999/xlink">
    <!-- Generator: Sketch 49.2 (51160) - http://www.bohemiancoding.com/sketch -->
    <desc>Created with Sketch.</desc>
    <defs></defs>
    <g id="Page-1" stroke="none" stroke-width="1" fill="none" fill-rule="evenodd">
        <g id="Definitivo-" transform="translate(-95.000000, -41.000000)" fill="#FFFFFF">
            <g id="yobicash-logo" transform="translate(95.000000, 41.000000)">
                <path d="M47.0475159,12.5035967 C47.0568018,10.519801 45.470417,8.92582316 43.4920163,8.93085307 C41.5665703,8.93563148 39.9942399,10.4795617 39.9581001,12.3999806 C39.9207055,14.3895607 41.4799855,16.012209 43.4511081,16.0353466 C45.4342773,16.0584841 47.03823,14.48362 47.0475159,12.5035967 Z M35.0034397,0 L39.9282346,0 L39.9282346,4.3063557 C41.7495278,4.26334998 43.4965337,3.97689672 45.1612213,4.23115857 C49.2490294,4.85562164 52.2335711,8.78800368 51.9856122,12.8916541 C51.722846,17.238249 48.3487981,20.6535566 43.9947103,20.9792431 C39.959104,21.2812891 36.0078238,18.251021 35.2416108,14.2313701 C35.0937891,13.4555068 35.017996,12.6542424 35.0137295,11.8642954 C34.9908912,7.93518279 35.0034397,4.00607019 35.0034397,0 Z" id="Fill-1"></path>
                <path d="M115.606105,0 L115.606105,4.31934945 C116.951349,4.2282218 118.19315,3.92328497 119.367022,4.10579269 C122.948939,4.66164609 125.59867,7.51209866 125.882306,11.3636932 C126.11565,14.5261507 125.929976,17.7231912 125.929976,20.9883882 L121.396568,20.9883882 C121.396568,18.2280535 121.466643,15.5060884 121.358432,12.7922011 C121.320773,11.8430599 121.008058,10.8020339 120.526354,10.002332 C119.897588,8.9587816 118.786402,8.73588489 117.657341,9.07086103 C116.495387,9.41568198 115.632561,10.6003414 115.60396,12.0121888 C115.552476,14.532209 115.581316,17.0539962 115.576788,19.5750261 C115.576073,20.0266255 115.576549,20.4784772 115.576549,21 L111,21 L111,0 L115.606105,0 Z" id="Fill-3"></path>
                <path d="M84.438864,8.9536856 C82.4704826,8.97316832 80.9113562,10.5804926 80.9449181,12.5559902 C80.9772277,14.4642975 82.543367,16.0014339 84.4636597,16.0096766 C86.4385531,16.0181691 88.0254808,14.4383205 88.0199706,12.4693171 C88.01421,10.5013128 86.4180152,8.93420289 84.438864,8.9536856 M92.943053,21 C91.1021568,20.7467247 89.3549334,21.2992346 87.3266916,20.4564821 C82.2177664,22.3373137 77.7870924,19.0037707 76.5397913,15.3472642 C75.4021926,12.0124723 76.05665,8.98840481 78.5605192,6.5143494 C81.0658913,4.03879533 84.1310461,3.36888956 87.4323866,4.60404393 C90.7858232,5.85893079 92.6748081,8.43439624 92.9042314,11.9755051 C93.0940816,14.9056559 92.943053,17.8577873 92.943053,21" id="Fill-6"></path>
                <path d="M24.5315595,8.95267506 C22.5493116,8.93861087 20.9530659,10.5205811 20.9530659,12.4998646 C20.9528147,14.4279143 22.4895403,16.0063685 24.4062406,16.0473053 C26.3937625,16.0894979 28.0193916,14.5341492 28.0472681,12.5629023 C28.0753958,10.5758332 26.5085334,8.96673925 24.5315595,8.95267506 M24.5333175,20.9999092 C19.9218851,21.0215078 16.0420235,17.1860024 16.0003343,12.5644092 C15.9583939,7.9069021 19.8686434,3.98073287 24.5295504,4.00007113 C29.1487681,4.01915825 32.998744,7.88178748 32.9999997,12.4981066 C33.0012554,17.1141745 29.1525352,20.9785618 24.5333175,20.9999092" id="Fill-8"></path>
                <path d="M107.985052,4.0792819 C107.985052,5.19787881 107.948656,6.24396707 107.997269,7.28627884 C108.033157,8.06171852 107.716789,8.31726114 106.960613,8.30014104 C105.434771,8.26489378 103.907657,8.29032216 102.381306,8.29283982 C102.042286,8.29334335 101.65669,8.20321108 101.375192,8.33211534 C100.974833,8.51565285 100.651085,8.86283834 100.294249,9.14028461 C100.644977,9.42855683 100.957272,9.80419189 101.358648,9.97765875 C101.680106,10.1163819 102.109988,10.0212143 102.491258,10.0098848 C107.194262,9.87116168 108.510889,13.3238824 107.808925,16.7750925 C107.212842,19.7051467 105.46455,20.9982175 102.414393,20.9994763 C100.086053,21.0004834 97.7572032,20.9997281 95.3229827,20.9997281 L95.3229827,16.4409988 C96.0809405,16.4409988 96.8287175,16.4412506 97.5762401,16.4409988 C98.8483265,16.4409988 100.120667,16.4576154 101.39199,16.4339494 C102.131114,16.420354 103.104395,16.5779596 103.08836,15.4538238 C103.072834,14.3820554 102.152748,14.418058 101.382573,14.4651382 C98.6816165,14.6305486 96.5113323,13.8520877 95.4372617,11.1838703 C94.093401,7.84519965 95.9539355,4.47556178 99.5551259,4.13089395 C102.274408,3.87031601 105.039249,4.0792819 107.985052,4.0792819" id="Fill-10"></path>
                <path d="M17,4.0166487 C14.2647611,11.1312833 11.6017624,18.0583603 8.93318721,25 L4.02187332,25 C4.53642572,23.6203092 4.97442894,22.291588 5.52953719,21.0130829 C5.88617523,20.1920476 5.89834198,19.490527 5.5607145,18.6406174 C3.80388561,14.2175724 2.11650862,9.76741065 0.411134967,5.32453025 C0.264373472,4.94188262 0.163237311,4.5419104 0,4.01865735 C1.52439315,4.01865735 2.94739667,3.97697788 4.36355639,4.05431087 C4.64237789,4.06962681 5.01321047,4.49772012 5.14121489,4.81458449 C6.0800829,7.13708485 6.96648178,9.48017385 7.87290511,11.8152283 C8.01941313,12.1926032 8.18417129,12.5631989 8.46755532,13.241369 C8.87640902,12.2267502 9.18514045,11.4843033 9.47536828,10.7348262 C10.2451691,8.7495278 10.974414,6.74790911 11.800993,4.78621233 C11.9449663,4.44549525 12.4729528,4.07741033 12.8465736,4.05154897 C14.1461353,3.96166193 15.4558359,4.0166487 17,4.0166487" id="Fill-12"></path>
                <path d="M72.1296288,14.8630965 C73.4540621,15.8058931 74.725915,16.7111691 76,17.6179561 C73.7665689,20.6037302 70.1010632,21.7263229 66.6677054,20.5274302 C63.2641102,19.3386101 60.9287423,15.9680621 61.0016605,12.3497279 C61.0755709,8.68782956 63.4682316,5.47970245 66.9440011,4.38279494 C70.3121293,3.3198825 73.9610175,4.51801977 75.9856148,7.38695165 C74.7063213,8.29399041 73.4275239,9.20027373 72.178241,10.0859082 C69.8002135,8.53271133 68.0591045,8.58836251 66.7088769,10.2067795 C65.5674833,11.5746403 65.6146073,13.5894147 66.8189984,14.9079196 C68.1975003,16.4173006 70.0484827,16.4314023 72.1296288,14.8630965" id="Fill-14"></path>
                <polygon id="Fill-16" points="53 21 58 21 58 4 53 4"></polygon>
            </g>
        </g>
    </g>
</svg>