
<svg width="65px" height="65px" viewBox="0 0 65 65" version="1.1" xmlns="http://www.w3.org/2000/svg" xmlns:xlink="http://www.w3.org/1999/xlink">
    <!-- Generator: Sketch 49.2 (51160) - http://www.bohemiancoding.com/sketch -->
    <desc>Created with Sketch.</desc>
    <defs></defs>
    <g id="Page-1" stroke="none" stroke-width="1" fill="none" fill-rule="evenodd">
        <g id="Definitivo-" transform="translate(-1117.000000, -6931.000000)">
            <g id="Group-28" transform="translate(0.000000, 6665.000000)">
                <g id="Group-26" transform="translate(72.000000, 132.000000)">
                    <g id="Social" transform="translate(960.000000, 134.000000)">
                        <g id="Medium" transform="translate(85.000000, 0.000000)">
                            <path d="M65,32.5 C65,50.4493062 50.4492551,65 32.499886,65 C14.5505169,65 0,50.4493062 0,32.5 C0,14.5506938 14.5505169,0 32.499886,0 C50.4492551,0 65,14.5506938 65,32.5 Z" id="Stroke-8" fill="#FFFFFF"></path>
                            <path d="M18.5580909,23.8927955 C18.6026364,23.4512045 18.4342273,23.0146136 18.1044545,22.7173409 L14.7449091,18.6702955 L14.7449091,18.0655227 L25.1765,18.0655227 L33.2396818,35.7489318 L40.3285455,18.0655227 L50.2730909,18.0655227 L50.2730909,18.6702955 L47.4005909,21.4243864 C47.1528636,21.6130227 47.0299091,21.92325 47.0815,22.2302955 L47.0815,42.4664318 C47.0299091,42.7734773 47.1528636,43.0837045 47.4005909,43.2725682 L50.2058182,46.0266591 L50.2058182,46.6312045 L36.0953636,46.6312045 L36.0953636,46.0266591 L39.0015,43.2052955 C39.2869545,42.9198409 39.2869545,42.8359773 39.2869545,42.3993864 L39.2869545,26.0423409 L31.2069545,46.5639318 L30.1153636,46.5639318 L20.7083182,26.0423409 L20.7083182,39.7964318 C20.6296818,40.3746136 20.8219545,40.9566591 21.229,41.3748409 L25.0085455,45.9593864 L25.0085455,46.5639318 L14.2915,46.5639318 L14.2915,45.9593864 L18.0708182,41.3748409 C18.4751364,40.9559773 18.6560455,40.3698409 18.5580909,39.7964318 L18.5580909,23.8927955 Z" id="Stroke-4" fill="#5F5FFF"></path>
                        </g>
                    </g>
                </g>
            </g>
        </g>
    </g>
</svg>