
<svg width="64px" height="64px" viewBox="0 0 64 64" version="1.1" xmlns="http://www.w3.org/2000/svg" xmlns:xlink="http://www.w3.org/1999/xlink">
    <!-- Generator: Sketch 49.2 (51160) - http://www.bohemiancoding.com/sketch -->
    <desc>Created with Sketch.</desc>
    <defs></defs>
    <g id="Page-1" stroke="none" stroke-width="1" fill="none" fill-rule="evenodd">
        <g id="Definitivo-" transform="translate(-1032.000000, -6932.000000)">
            <g id="Group-28" transform="translate(0.000000, 6665.000000)">
                <g id="Group-26" transform="translate(72.000000, 132.000000)">
                    <g id="Social" transform="translate(960.000000, 134.000000)">
                        <g id="Twitter" transform="translate(0.000000, 1.000000)">
                            <circle id="Oval-3" fill="#FFFFFF" cx="32" cy="32" r="32"></circle>
                            <path d="M48.0321333,20.6131333 C47.0442444,21.2459111 44.7760667,22.1654222 43.6574667,22.1654222 L43.6574667,22.1673111 C42.3802,20.833 40.5819778,20 38.5876889,20 C34.7143333,20 31.5734889,23.1408444 31.5734889,27.0126889 C31.5734889,27.5506444 31.6358222,28.0753778 31.7510444,28.5785778 L31.7499111,28.5785778 C26.4957778,28.4406889 20.7494,25.8072 17.2900889,21.2999333 C15.1632,24.9813778 17.0037333,29.0757333 19.4173556,30.5675778 C18.5911556,30.6299111 17.0702222,30.4723778 16.3543333,29.7738667 C16.3063556,32.2173333 17.4812444,35.4548889 21.7652444,36.6294 C20.9401778,37.0732889 19.4796889,36.9459778 18.8446444,36.8515333 C19.0675333,38.9142 21.9560222,41.6107778 25.1146222,41.6107778 C23.9888444,42.9129778 19.7532,45.2748444 15,44.5234444 C18.2281111,46.4875111 21.9904,47.625 25.9725556,47.625 C37.2888889,47.625 46.0771333,38.4536889 45.6041556,27.1396222 C45.6022667,27.1271556 45.6022667,27.1146889 45.6011333,27.1010889 C45.6022667,27.072 45.6041556,27.0429111 45.6041556,27.0126889 C45.6041556,26.9775556 45.6011333,26.9443111 45.6,26.9103111 C46.6302,26.2057556 48.0124889,24.9594667 49,23.3191556 C48.4272889,23.6346 46.7091556,24.2662444 45.1104,24.4230222 C46.1364444,23.8692 47.6566222,22.0554889 48.0321333,20.6131333" id="Fill-1" fill="#5F5FFF"></path>
                        </g>
                    </g>
                </g>
            </g>
        </g>
    </g>
</svg>